STARTFONT 2.1
FONT -GT-Medium-R-Normal--24-240-75-75-P-132-ISO10646-1
SIZE 24 75 75
FONTBOUNDINGBOX 6 11 0 0
COMMENT "Manually created"
COMMENT "Copyright 2021 Raphaël Doursenaud <rdoursenaud@free.fr>"
COMMENT "Licensed under MIT"
STARTPROPERTIES 2
FONT_ASCENT 11
FONT_DESCENT 0
ENDPROPERTIES
CHARS 14
STARTCHAR space
ENCODING 32
SWIDTH 500 0
DWIDTH 2 0
BBX 6 11 0 0
BITMAP
00
00
00
00
00
00
00
00
00
00
00
ENDCHAR
STARTCHAR hyphen
ENCODING 45
SWIDTH 500 0
DWIDTH 4 0
BBX 6 11 0 0
BITMAP
00
00
00
00
00
60
00
00
00
00
00
ENDCHAR
STARTCHAR period
ENCODING 46
SWIDTH 500 0
DWIDTH 2 0
BBX 6 11 0 0
BITMAP
00
00
00
00
00
00
00
00
00
00
80
ENDCHAR
STARTCHAR zero
ENCODING 48
SWIDTH 500 0
DWIDTH 7 0
BBX 6 11 0 0
BITMAP
78
84
84
84
84
00
84
84
84
84
78
ENDCHAR
STARTCHAR one
ENCODING 49
SWIDTH 500 0
DWIDTH 7 0
BBX 6 11 0 0
BITMAP
00
04
04
04
04
00
04
04
04
04
00
ENDCHAR
STARTCHAR two
ENCODING 50
SWIDTH 500 0
DWIDTH 7 0
BBX 6 11 0 0
BITMAP
78
04
04
04
04
78
80
80
80
80
78
ENDCHAR
STARTCHAR three
ENCODING 51
SWIDTH 500 0
DWIDTH 7 0
BBX 6 11 0 0
BITMAP
78
04
04
04
04
78
04
04
04
04
78
ENDCHAR
STARTCHAR four
ENCODING 52
SWIDTH 500 0
DWIDTH 7 0
BBX 6 11 0 0
BITMAP
00
84
84
84
84
78
04
04
04
04
00
ENDCHAR
STARTCHAR five
ENCODING 53
SWIDTH 500 0
DWIDTH 7 0
BBX 6 11 0 0
BITMAP
78
80
80
80
80
78
04
04
04
04
78
ENDCHAR
STARTCHAR six
ENCODING 54
SWIDTH 500 0
DWIDTH 7 0
BBX 6 11 0 0
BITMAP
78
80
80
80
80
78
84
84
84
84
78
ENDCHAR
STARTCHAR seven
ENCODING 55
SWIDTH 500 0
DWIDTH 7 0
BBX 6 11 0 0
BITMAP
78
04
04
04
04
00
04
04
04
04
00
ENDCHAR
STARTCHAR eight
ENCODING 56
SWIDTH 500 0
DWIDTH 7 0
BBX 6 11 0 0
BITMAP
78
84
84
84
84
78
84
84
84
84
78
ENDCHAR
STARTCHAR nine
ENCODING 57
SWIDTH 500 0
DWIDTH 7 0
BBX 6 11 0 0
BITMAP
78
84
84
84
84
78
04
04
04
04
78
ENDCHAR
STARTCHAR colon
ENCODING 58
SWIDTH 500 0
DWIDTH 2 0
BBX 6 11 0 0
BITMAP
00
00
00
80
00
00
00
80
00
00
00
ENDCHAR
ENDFONT
